<?xml version="1.0" encoding="UTF-8"?>
<svg xmlns="http://www.w3.org/2000/svg" xmlns:xlink="http://www.w3.org/1999/xlink" width="1376" height="222" viewBox="0 0 1376 222" role="img" aria-label="Codemate ASCII logo">
<title>Codemate ASCII logo</title>
<defs>
<g>
<g id="glyph-0-0">
<rect x="0" y="0" width="0" height="0" mask="url(#mask-0)"/>
</g>
<g id="glyph-0-1">
<path d="M 0 7.988281 L 0 -30.089844 L 20.398438 -30.089844 L 20.398438 7.988281 Z M 0 7.988281 "/>
</g>
<g id="glyph-0-2">
<path d="M 8.90625 7.988281 L 6.324219 7.988281 L 6.324219 -7.753906 L 0 -7.753906 L 0 -10.335938 L 8.90625 -10.335938 Z M 11.492188 7.988281 L 11.492188 -12.921875 L 0 -12.921875 L 0 -15.503906 L 14.074219 -15.503906 L 14.074219 7.988281 Z M 11.492188 7.988281 "/>
</g>
<g id="glyph-0-3">
<path d="M 8.90625 7.988281 L 6.324219 7.988281 L 6.324219 -15.503906 L 20.398438 -15.503906 L 20.398438 -12.921875 L 8.90625 -12.921875 Z M 11.492188 7.988281 L 11.492188 -10.335938 L 20.398438 -10.335938 L 20.398438 -7.753906 L 14.074219 -7.753906 L 14.074219 7.988281 Z M 11.492188 7.988281 "/>
</g>
<g id="glyph-0-4">
<path d="M 0 -10.335938 L 20.398438 -10.335938 L 20.398438 -7.753906 L 0 -7.753906 Z M 0 -12.921875 L 0 -15.503906 L 20.398438 -15.503906 L 20.398438 -12.921875 Z M 0 -12.921875 "/>
</g>
<g id="glyph-0-5">
<path d="M 0 -10.335938 L 11.492188 -10.335938 L 11.492188 -30.089844 L 14.074219 -30.089844 L 14.074219 -7.753906 L 0 -7.753906 Z M 0 -12.921875 L 0 -15.503906 L 6.324219 -15.503906 L 6.324219 -30.089844 L 8.90625 -30.089844 L 8.90625 -12.921875 Z M 0 -12.921875 "/>
</g>
<g id="glyph-0-6">
<path d="M 8.90625 7.988281 L 6.324219 7.988281 L 6.324219 -30.089844 L 8.90625 -30.089844 Z M 11.492188 -30.089844 L 14.074219 -30.089844 L 14.074219 7.988281 L 11.492188 7.988281 Z M 11.492188 -30.089844 "/>
</g>
<g id="glyph-0-7">
<path d="M 6.324219 -7.753906 L 6.324219 -30.089844 L 8.90625 -30.089844 L 8.90625 -10.335938 L 20.398438 -10.335938 L 20.398438 -7.753906 Z M 20.398438 -12.921875 L 11.492188 -12.921875 L 11.492188 -30.089844 L 14.074219 -30.089844 L 14.074219 -15.503906 L 20.398438 -15.503906 Z M 20.398438 -12.921875 "/>
</g>
</g>
<image id="source-5" x="0" y="0" width="0" height="0"/>
<mask id="mask-0">
<use xlink:href="#source-5"/>
</mask>
</defs>
<g fill="rgb(14.117647%, 16.078431%, 18.431373%)" fill-opacity="1">
<use xlink:href="#glyph-0-0" x="0" y="30.089844"/>
<use xlink:href="#glyph-0-1" x="20" y="30.089844"/>
<use xlink:href="#glyph-0-1" x="40" y="30.089844"/>
<use xlink:href="#glyph-0-1" x="60" y="30.089844"/>
<use xlink:href="#glyph-0-1" x="80" y="30.089844"/>
<use xlink:href="#glyph-0-1" x="100" y="30.089844"/>
<use xlink:href="#glyph-0-1" x="120" y="30.089844"/>
<use xlink:href="#glyph-0-2" x="140" y="30.089844"/>
<use xlink:href="#glyph-0-0" x="160" y="30.089844"/>
<use xlink:href="#glyph-0-1" x="180" y="30.089844"/>
<use xlink:href="#glyph-0-1" x="200" y="30.089844"/>
<use xlink:href="#glyph-0-1" x="220" y="30.089844"/>
<use xlink:href="#glyph-0-1" x="240" y="30.089844"/>
<use xlink:href="#glyph-0-1" x="260" y="30.089844"/>
<use xlink:href="#glyph-0-1" x="280" y="30.089844"/>
<use xlink:href="#glyph-0-2" x="300" y="30.089844"/>
<use xlink:href="#glyph-0-0" x="320" y="30.089844"/>
<use xlink:href="#glyph-0-1" x="340" y="30.089844"/>
<use xlink:href="#glyph-0-1" x="360" y="30.089844"/>
<use xlink:href="#glyph-0-1" x="380" y="30.089844"/>
<use xlink:href="#glyph-0-1" x="400" y="30.089844"/>
<use xlink:href="#glyph-0-1" x="420" y="30.089844"/>
<use xlink:href="#glyph-0-1" x="440" y="30.089844"/>
<use xlink:href="#glyph-0-2" x="460" y="30.089844"/>
<use xlink:href="#glyph-0-0" x="480" y="30.089844"/>
<use xlink:href="#glyph-0-1" x="500" y="30.089844"/>
<use xlink:href="#glyph-0-1" x="520" y="30.089844"/>
<use xlink:href="#glyph-0-1" x="540" y="30.089844"/>
<use xlink:href="#glyph-0-1" x="560" y="30.089844"/>
<use xlink:href="#glyph-0-1" x="580" y="30.089844"/>
<use xlink:href="#glyph-0-1" x="600" y="30.089844"/>
<use xlink:href="#glyph-0-1" x="620" y="30.089844"/>
<use xlink:href="#glyph-0-2" x="640" y="30.089844"/>
<use xlink:href="#glyph-0-1" x="660" y="30.089844"/>
<use xlink:href="#glyph-0-1" x="680" y="30.089844"/>
<use xlink:href="#glyph-0-1" x="700" y="30.089844"/>
<use xlink:href="#glyph-0-2" x="720" y="30.089844"/>
<use xlink:href="#glyph-0-0" x="740" y="30.089844"/>
<use xlink:href="#glyph-0-0" x="760" y="30.089844"/>
<use xlink:href="#glyph-0-0" x="780" y="30.089844"/>
<use xlink:href="#glyph-0-1" x="800" y="30.089844"/>
<use xlink:href="#glyph-0-1" x="820" y="30.089844"/>
<use xlink:href="#glyph-0-1" x="840" y="30.089844"/>
<use xlink:href="#glyph-0-2" x="860" y="30.089844"/>
<use xlink:href="#glyph-0-0" x="880" y="30.089844"/>
<use xlink:href="#glyph-0-1" x="900" y="30.089844"/>
<use xlink:href="#glyph-0-1" x="920" y="30.089844"/>
<use xlink:href="#glyph-0-1" x="940" y="30.089844"/>
<use xlink:href="#glyph-0-1" x="960" y="30.089844"/>
<use xlink:href="#glyph-0-1" x="980" y="30.089844"/>
<use xlink:href="#glyph-0-2" x="1000" y="30.089844"/>
<use xlink:href="#glyph-0-0" x="1020" y="30.089844"/>
<use xlink:href="#glyph-0-1" x="1040" y="30.089844"/>
<use xlink:href="#glyph-0-1" x="1060" y="30.089844"/>
<use xlink:href="#glyph-0-1" x="1080" y="30.089844"/>
<use xlink:href="#glyph-0-1" x="1100" y="30.089844"/>
<use xlink:href="#glyph-0-1" x="1120" y="30.089844"/>
<use xlink:href="#glyph-0-1" x="1140" y="30.089844"/>
<use xlink:href="#glyph-0-1" x="1160" y="30.089844"/>
<use xlink:href="#glyph-0-1" x="1180" y="30.089844"/>
<use xlink:href="#glyph-0-2" x="1200" y="30.089844"/>
<use xlink:href="#glyph-0-1" x="1220" y="30.089844"/>
<use xlink:href="#glyph-0-1" x="1240" y="30.089844"/>
<use xlink:href="#glyph-0-1" x="1260" y="30.089844"/>
<use xlink:href="#glyph-0-1" x="1280" y="30.089844"/>
<use xlink:href="#glyph-0-1" x="1300" y="30.089844"/>
<use xlink:href="#glyph-0-1" x="1320" y="30.089844"/>
<use xlink:href="#glyph-0-1" x="1340" y="30.089844"/>
<use xlink:href="#glyph-0-2" x="1360" y="30.089844"/>
</g>
<g fill="rgb(14.117647%, 16.078431%, 18.431373%)" fill-opacity="1">
<use xlink:href="#glyph-0-1" x="0" y="68.168945"/>
<use xlink:href="#glyph-0-1" x="20" y="68.168945"/>
<use xlink:href="#glyph-0-3" x="40" y="68.168945"/>
<use xlink:href="#glyph-0-4" x="60" y="68.168945"/>
<use xlink:href="#glyph-0-4" x="80" y="68.168945"/>
<use xlink:href="#glyph-0-4" x="100" y="68.168945"/>
<use xlink:href="#glyph-0-4" x="120" y="68.168945"/>
<use xlink:href="#glyph-0-5" x="140" y="68.168945"/>
<use xlink:href="#glyph-0-1" x="160" y="68.168945"/>
<use xlink:href="#glyph-0-1" x="180" y="68.168945"/>
<use xlink:href="#glyph-0-3" x="200" y="68.168945"/>
<use xlink:href="#glyph-0-4" x="220" y="68.168945"/>
<use xlink:href="#glyph-0-4" x="240" y="68.168945"/>
<use xlink:href="#glyph-0-4" x="260" y="68.168945"/>
<use xlink:href="#glyph-0-1" x="280" y="68.168945"/>
<use xlink:href="#glyph-0-1" x="300" y="68.168945"/>
<use xlink:href="#glyph-0-2" x="320" y="68.168945"/>
<use xlink:href="#glyph-0-1" x="340" y="68.168945"/>
<use xlink:href="#glyph-0-1" x="360" y="68.168945"/>
<use xlink:href="#glyph-0-3" x="380" y="68.168945"/>
<use xlink:href="#glyph-0-4" x="400" y="68.168945"/>
<use xlink:href="#glyph-0-4" x="420" y="68.168945"/>
<use xlink:href="#glyph-0-1" x="440" y="68.168945"/>
<use xlink:href="#glyph-0-1" x="460" y="68.168945"/>
<use xlink:href="#glyph-0-2" x="480" y="68.168945"/>
<use xlink:href="#glyph-0-1" x="500" y="68.168945"/>
<use xlink:href="#glyph-0-1" x="520" y="68.168945"/>
<use xlink:href="#glyph-0-3" x="540" y="68.168945"/>
<use xlink:href="#glyph-0-4" x="560" y="68.168945"/>
<use xlink:href="#glyph-0-4" x="580" y="68.168945"/>
<use xlink:href="#glyph-0-4" x="600" y="68.168945"/>
<use xlink:href="#glyph-0-4" x="620" y="68.168945"/>
<use xlink:href="#glyph-0-5" x="640" y="68.168945"/>
<use xlink:href="#glyph-0-1" x="660" y="68.168945"/>
<use xlink:href="#glyph-0-1" x="680" y="68.168945"/>
<use xlink:href="#glyph-0-1" x="700" y="68.168945"/>
<use xlink:href="#glyph-0-1" x="720" y="68.168945"/>
<use xlink:href="#glyph-0-2" x="740" y="68.168945"/>
<use xlink:href="#glyph-0-0" x="760" y="68.168945"/>
<use xlink:href="#glyph-0-1" x="780" y="68.168945"/>
<use xlink:href="#glyph-0-1" x="800" y="68.168945"/>
<use xlink:href="#glyph-0-1" x="820" y="68.168945"/>
<use xlink:href="#glyph-0-1" x="840" y="68.168945"/>
<use xlink:href="#glyph-0-6" x="860" y="68.168945"/>
<use xlink:href="#glyph-0-1" x="880" y="68.168945"/>
<use xlink:href="#glyph-0-1" x="900" y="68.168945"/>
<use xlink:href="#glyph-0-3" x="920" y="68.168945"/>
<use xlink:href="#glyph-0-4" x="940" y="68.168945"/>
<use xlink:href="#glyph-0-4" x="960" y="68.168945"/>
<use xlink:href="#glyph-0-1" x="980" y="68.168945"/>
<use xlink:href="#glyph-0-1" x="1000" y="68.168945"/>
<use xlink:href="#glyph-0-2" x="1020" y="68.168945"/>
<use xlink:href="#glyph-0-7" x="1040" y="68.168945"/>
<use xlink:href="#glyph-0-4" x="1060" y="68.168945"/>
<use xlink:href="#glyph-0-4" x="1080" y="68.168945"/>
<use xlink:href="#glyph-0-1" x="1100" y="68.168945"/>
<use xlink:href="#glyph-0-1" x="1120" y="68.168945"/>
<use xlink:href="#glyph-0-3" x="1140" y="68.168945"/>
<use xlink:href="#glyph-0-4" x="1160" y="68.168945"/>
<use xlink:href="#glyph-0-4" x="1180" y="68.168945"/>
<use xlink:href="#glyph-0-5" x="1200" y="68.168945"/>
<use xlink:href="#glyph-0-1" x="1220" y="68.168945"/>
<use xlink:href="#glyph-0-1" x="1240" y="68.168945"/>
<use xlink:href="#glyph-0-3" x="1260" y="68.168945"/>
<use xlink:href="#glyph-0-4" x="1280" y="68.168945"/>
<use xlink:href="#glyph-0-4" x="1300" y="68.168945"/>
<use xlink:href="#glyph-0-4" x="1320" y="68.168945"/>
<use xlink:href="#glyph-0-4" x="1340" y="68.168945"/>
<use xlink:href="#glyph-0-5" x="1360" y="68.168945"/>
</g>
<g fill="rgb(14.117647%, 16.078431%, 18.431373%)" fill-opacity="1">
<use xlink:href="#glyph-0-1" x="0" y="106.248047"/>
<use xlink:href="#glyph-0-1" x="20" y="106.248047"/>
<use xlink:href="#glyph-0-6" x="40" y="106.248047"/>
<use xlink:href="#glyph-0-0" x="60" y="106.248047"/>
<use xlink:href="#glyph-0-0" x="80" y="106.248047"/>
<use xlink:href="#glyph-0-0" x="100" y="106.248047"/>
<use xlink:href="#glyph-0-0" x="120" y="106.248047"/>
<use xlink:href="#glyph-0-0" x="140" y="106.248047"/>
<use xlink:href="#glyph-0-1" x="160" y="106.248047"/>
<use xlink:href="#glyph-0-1" x="180" y="106.248047"/>
<use xlink:href="#glyph-0-6" x="200" y="106.248047"/>
<use xlink:href="#glyph-0-0" x="220" y="106.248047"/>
<use xlink:href="#glyph-0-0" x="240" y="106.248047"/>
<use xlink:href="#glyph-0-0" x="260" y="106.248047"/>
<use xlink:href="#glyph-0-1" x="280" y="106.248047"/>
<use xlink:href="#glyph-0-1" x="300" y="106.248047"/>
<use xlink:href="#glyph-0-6" x="320" y="106.248047"/>
<use xlink:href="#glyph-0-1" x="340" y="106.248047"/>
<use xlink:href="#glyph-0-1" x="360" y="106.248047"/>
<use xlink:href="#glyph-0-6" x="380" y="106.248047"/>
<use xlink:href="#glyph-0-0" x="400" y="106.248047"/>
<use xlink:href="#glyph-0-0" x="420" y="106.248047"/>
<use xlink:href="#glyph-0-1" x="440" y="106.248047"/>
<use xlink:href="#glyph-0-1" x="460" y="106.248047"/>
<use xlink:href="#glyph-0-6" x="480" y="106.248047"/>
<use xlink:href="#glyph-0-1" x="500" y="106.248047"/>
<use xlink:href="#glyph-0-1" x="520" y="106.248047"/>
<use xlink:href="#glyph-0-1" x="540" y="106.248047"/>
<use xlink:href="#glyph-0-1" x="560" y="106.248047"/>
<use xlink:href="#glyph-0-1" x="580" y="106.248047"/>
<use xlink:href="#glyph-0-2" x="600" y="106.248047"/>
<use xlink:href="#glyph-0-0" x="620" y="106.248047"/>
<use xlink:href="#glyph-0-0" x="640" y="106.248047"/>
<use xlink:href="#glyph-0-1" x="660" y="106.248047"/>
<use xlink:href="#glyph-0-1" x="680" y="106.248047"/>
<use xlink:href="#glyph-0-3" x="700" y="106.248047"/>
<use xlink:href="#glyph-0-1" x="720" y="106.248047"/>
<use xlink:href="#glyph-0-1" x="740" y="106.248047"/>
<use xlink:href="#glyph-0-1" x="760" y="106.248047"/>
<use xlink:href="#glyph-0-1" x="780" y="106.248047"/>
<use xlink:href="#glyph-0-3" x="800" y="106.248047"/>
<use xlink:href="#glyph-0-1" x="820" y="106.248047"/>
<use xlink:href="#glyph-0-1" x="840" y="106.248047"/>
<use xlink:href="#glyph-0-6" x="860" y="106.248047"/>
<use xlink:href="#glyph-0-1" x="880" y="106.248047"/>
<use xlink:href="#glyph-0-1" x="900" y="106.248047"/>
<use xlink:href="#glyph-0-1" x="920" y="106.248047"/>
<use xlink:href="#glyph-0-1" x="940" y="106.248047"/>
<use xlink:href="#glyph-0-1" x="960" y="106.248047"/>
<use xlink:href="#glyph-0-1" x="980" y="106.248047"/>
<use xlink:href="#glyph-0-1" x="1000" y="106.248047"/>
<use xlink:href="#glyph-0-6" x="1020" y="106.248047"/>
<use xlink:href="#glyph-0-0" x="1040" y="106.248047"/>
<use xlink:href="#glyph-0-0" x="1060" y="106.248047"/>
<use xlink:href="#glyph-0-0" x="1080" y="106.248047"/>
<use xlink:href="#glyph-0-1" x="1100" y="106.248047"/>
<use xlink:href="#glyph-0-1" x="1120" y="106.248047"/>
<use xlink:href="#glyph-0-6" x="1140" y="106.248047"/>
<use xlink:href="#glyph-0-0" x="1160" y="106.248047"/>
<use xlink:href="#glyph-0-0" x="1180" y="106.248047"/>
<use xlink:href="#glyph-0-0" x="1200" y="106.248047"/>
<use xlink:href="#glyph-0-1" x="1220" y="106.248047"/>
<use xlink:href="#glyph-0-1" x="1240" y="106.248047"/>
<use xlink:href="#glyph-0-1" x="1260" y="106.248047"/>
<use xlink:href="#glyph-0-1" x="1280" y="106.248047"/>
<use xlink:href="#glyph-0-1" x="1300" y="106.248047"/>
<use xlink:href="#glyph-0-2" x="1320" y="106.248047"/>
<use xlink:href="#glyph-0-0" x="1340" y="106.248047"/>
<use xlink:href="#glyph-0-0" x="1360" y="106.248047"/>
</g>
<g fill="rgb(14.117647%, 16.078431%, 18.431373%)" fill-opacity="1">
<use xlink:href="#glyph-0-1" x="0" y="144.327148"/>
<use xlink:href="#glyph-0-1" x="20" y="144.327148"/>
<use xlink:href="#glyph-0-6" x="40" y="144.327148"/>
<use xlink:href="#glyph-0-0" x="60" y="144.327148"/>
<use xlink:href="#glyph-0-0" x="80" y="144.327148"/>
<use xlink:href="#glyph-0-0" x="100" y="144.327148"/>
<use xlink:href="#glyph-0-0" x="120" y="144.327148"/>
<use xlink:href="#glyph-0-0" x="140" y="144.327148"/>
<use xlink:href="#glyph-0-1" x="160" y="144.327148"/>
<use xlink:href="#glyph-0-1" x="180" y="144.327148"/>
<use xlink:href="#glyph-0-6" x="200" y="144.327148"/>
<use xlink:href="#glyph-0-0" x="220" y="144.327148"/>
<use xlink:href="#glyph-0-0" x="240" y="144.327148"/>
<use xlink:href="#glyph-0-0" x="260" y="144.327148"/>
<use xlink:href="#glyph-0-1" x="280" y="144.327148"/>
<use xlink:href="#glyph-0-1" x="300" y="144.327148"/>
<use xlink:href="#glyph-0-6" x="320" y="144.327148"/>
<use xlink:href="#glyph-0-1" x="340" y="144.327148"/>
<use xlink:href="#glyph-0-1" x="360" y="144.327148"/>
<use xlink:href="#glyph-0-6" x="380" y="144.327148"/>
<use xlink:href="#glyph-0-0" x="400" y="144.327148"/>
<use xlink:href="#glyph-0-0" x="420" y="144.327148"/>
<use xlink:href="#glyph-0-1" x="440" y="144.327148"/>
<use xlink:href="#glyph-0-1" x="460" y="144.327148"/>
<use xlink:href="#glyph-0-6" x="480" y="144.327148"/>
<use xlink:href="#glyph-0-1" x="500" y="144.327148"/>
<use xlink:href="#glyph-0-1" x="520" y="144.327148"/>
<use xlink:href="#glyph-0-3" x="540" y="144.327148"/>
<use xlink:href="#glyph-0-4" x="560" y="144.327148"/>
<use xlink:href="#glyph-0-4" x="580" y="144.327148"/>
<use xlink:href="#glyph-0-5" x="600" y="144.327148"/>
<use xlink:href="#glyph-0-0" x="620" y="144.327148"/>
<use xlink:href="#glyph-0-0" x="640" y="144.327148"/>
<use xlink:href="#glyph-0-1" x="660" y="144.327148"/>
<use xlink:href="#glyph-0-1" x="680" y="144.327148"/>
<use xlink:href="#glyph-0-6" x="700" y="144.327148"/>
<use xlink:href="#glyph-0-7" x="720" y="144.327148"/>
<use xlink:href="#glyph-0-1" x="740" y="144.327148"/>
<use xlink:href="#glyph-0-1" x="760" y="144.327148"/>
<use xlink:href="#glyph-0-3" x="780" y="144.327148"/>
<use xlink:href="#glyph-0-5" x="800" y="144.327148"/>
<use xlink:href="#glyph-0-1" x="820" y="144.327148"/>
<use xlink:href="#glyph-0-1" x="840" y="144.327148"/>
<use xlink:href="#glyph-0-6" x="860" y="144.327148"/>
<use xlink:href="#glyph-0-1" x="880" y="144.327148"/>
<use xlink:href="#glyph-0-1" x="900" y="144.327148"/>
<use xlink:href="#glyph-0-3" x="920" y="144.327148"/>
<use xlink:href="#glyph-0-4" x="940" y="144.327148"/>
<use xlink:href="#glyph-0-4" x="960" y="144.327148"/>
<use xlink:href="#glyph-0-1" x="980" y="144.327148"/>
<use xlink:href="#glyph-0-1" x="1000" y="144.327148"/>
<use xlink:href="#glyph-0-6" x="1020" y="144.327148"/>
<use xlink:href="#glyph-0-0" x="1040" y="144.327148"/>
<use xlink:href="#glyph-0-0" x="1060" y="144.327148"/>
<use xlink:href="#glyph-0-0" x="1080" y="144.327148"/>
<use xlink:href="#glyph-0-1" x="1100" y="144.327148"/>
<use xlink:href="#glyph-0-1" x="1120" y="144.327148"/>
<use xlink:href="#glyph-0-6" x="1140" y="144.327148"/>
<use xlink:href="#glyph-0-0" x="1160" y="144.327148"/>
<use xlink:href="#glyph-0-0" x="1180" y="144.327148"/>
<use xlink:href="#glyph-0-0" x="1200" y="144.327148"/>
<use xlink:href="#glyph-0-1" x="1220" y="144.327148"/>
<use xlink:href="#glyph-0-1" x="1240" y="144.327148"/>
<use xlink:href="#glyph-0-3" x="1260" y="144.327148"/>
<use xlink:href="#glyph-0-4" x="1280" y="144.327148"/>
<use xlink:href="#glyph-0-4" x="1300" y="144.327148"/>
<use xlink:href="#glyph-0-5" x="1320" y="144.327148"/>
<use xlink:href="#glyph-0-0" x="1340" y="144.327148"/>
<use xlink:href="#glyph-0-0" x="1360" y="144.327148"/>
</g>
<g fill="rgb(14.117647%, 16.078431%, 18.431373%)" fill-opacity="1">
<use xlink:href="#glyph-0-7" x="0" y="182.40625"/>
<use xlink:href="#glyph-0-1" x="20" y="182.40625"/>
<use xlink:href="#glyph-0-1" x="40" y="182.40625"/>
<use xlink:href="#glyph-0-1" x="60" y="182.40625"/>
<use xlink:href="#glyph-0-1" x="80" y="182.40625"/>
<use xlink:href="#glyph-0-1" x="100" y="182.40625"/>
<use xlink:href="#glyph-0-1" x="120" y="182.40625"/>
<use xlink:href="#glyph-0-2" x="140" y="182.40625"/>
<use xlink:href="#glyph-0-7" x="160" y="182.40625"/>
<use xlink:href="#glyph-0-1" x="180" y="182.40625"/>
<use xlink:href="#glyph-0-1" x="200" y="182.40625"/>
<use xlink:href="#glyph-0-1" x="220" y="182.40625"/>
<use xlink:href="#glyph-0-1" x="240" y="182.40625"/>
<use xlink:href="#glyph-0-1" x="260" y="182.40625"/>
<use xlink:href="#glyph-0-1" x="280" y="182.40625"/>
<use xlink:href="#glyph-0-3" x="300" y="182.40625"/>
<use xlink:href="#glyph-0-5" x="320" y="182.40625"/>
<use xlink:href="#glyph-0-1" x="340" y="182.40625"/>
<use xlink:href="#glyph-0-1" x="360" y="182.40625"/>
<use xlink:href="#glyph-0-1" x="380" y="182.40625"/>
<use xlink:href="#glyph-0-1" x="400" y="182.40625"/>
<use xlink:href="#glyph-0-1" x="420" y="182.40625"/>
<use xlink:href="#glyph-0-1" x="440" y="182.40625"/>
<use xlink:href="#glyph-0-3" x="460" y="182.40625"/>
<use xlink:href="#glyph-0-5" x="480" y="182.40625"/>
<use xlink:href="#glyph-0-1" x="500" y="182.40625"/>
<use xlink:href="#glyph-0-1" x="520" y="182.40625"/>
<use xlink:href="#glyph-0-1" x="540" y="182.40625"/>
<use xlink:href="#glyph-0-1" x="560" y="182.40625"/>
<use xlink:href="#glyph-0-1" x="580" y="182.40625"/>
<use xlink:href="#glyph-0-1" x="600" y="182.40625"/>
<use xlink:href="#glyph-0-1" x="620" y="182.40625"/>
<use xlink:href="#glyph-0-2" x="640" y="182.40625"/>
<use xlink:href="#glyph-0-1" x="660" y="182.40625"/>
<use xlink:href="#glyph-0-1" x="680" y="182.40625"/>
<use xlink:href="#glyph-0-6" x="700" y="182.40625"/>
<use xlink:href="#glyph-0-0" x="720" y="182.40625"/>
<use xlink:href="#glyph-0-7" x="740" y="182.40625"/>
<use xlink:href="#glyph-0-4" x="760" y="182.40625"/>
<use xlink:href="#glyph-0-5" x="780" y="182.40625"/>
<use xlink:href="#glyph-0-0" x="800" y="182.40625"/>
<use xlink:href="#glyph-0-1" x="820" y="182.40625"/>
<use xlink:href="#glyph-0-1" x="840" y="182.40625"/>
<use xlink:href="#glyph-0-6" x="860" y="182.40625"/>
<use xlink:href="#glyph-0-1" x="880" y="182.40625"/>
<use xlink:href="#glyph-0-1" x="900" y="182.40625"/>
<use xlink:href="#glyph-0-6" x="920" y="182.40625"/>
<use xlink:href="#glyph-0-0" x="940" y="182.40625"/>
<use xlink:href="#glyph-0-0" x="960" y="182.40625"/>
<use xlink:href="#glyph-0-1" x="980" y="182.40625"/>
<use xlink:href="#glyph-0-1" x="1000" y="182.40625"/>
<use xlink:href="#glyph-0-6" x="1020" y="182.40625"/>
<use xlink:href="#glyph-0-0" x="1040" y="182.40625"/>
<use xlink:href="#glyph-0-0" x="1060" y="182.40625"/>
<use xlink:href="#glyph-0-0" x="1080" y="182.40625"/>
<use xlink:href="#glyph-0-1" x="1100" y="182.40625"/>
<use xlink:href="#glyph-0-1" x="1120" y="182.40625"/>
<use xlink:href="#glyph-0-6" x="1140" y="182.40625"/>
<use xlink:href="#glyph-0-0" x="1160" y="182.40625"/>
<use xlink:href="#glyph-0-0" x="1180" y="182.40625"/>
<use xlink:href="#glyph-0-0" x="1200" y="182.40625"/>
<use xlink:href="#glyph-0-1" x="1220" y="182.40625"/>
<use xlink:href="#glyph-0-1" x="1240" y="182.40625"/>
<use xlink:href="#glyph-0-1" x="1260" y="182.40625"/>
<use xlink:href="#glyph-0-1" x="1280" y="182.40625"/>
<use xlink:href="#glyph-0-1" x="1300" y="182.40625"/>
<use xlink:href="#glyph-0-1" x="1320" y="182.40625"/>
<use xlink:href="#glyph-0-1" x="1340" y="182.40625"/>
<use xlink:href="#glyph-0-2" x="1360" y="182.40625"/>
</g>
<g fill="rgb(14.117647%, 16.078431%, 18.431373%)" fill-opacity="1">
<use xlink:href="#glyph-0-0" x="0" y="220.485352"/>
<use xlink:href="#glyph-0-7" x="20" y="220.485352"/>
<use xlink:href="#glyph-0-4" x="40" y="220.485352"/>
<use xlink:href="#glyph-0-4" x="60" y="220.485352"/>
<use xlink:href="#glyph-0-4" x="80" y="220.485352"/>
<use xlink:href="#glyph-0-4" x="100" y="220.485352"/>
<use xlink:href="#glyph-0-4" x="120" y="220.485352"/>
<use xlink:href="#glyph-0-5" x="140" y="220.485352"/>
<use xlink:href="#glyph-0-0" x="160" y="220.485352"/>
<use xlink:href="#glyph-0-7" x="180" y="220.485352"/>
<use xlink:href="#glyph-0-4" x="200" y="220.485352"/>
<use xlink:href="#glyph-0-4" x="220" y="220.485352"/>
<use xlink:href="#glyph-0-4" x="240" y="220.485352"/>
<use xlink:href="#glyph-0-4" x="260" y="220.485352"/>
<use xlink:href="#glyph-0-4" x="280" y="220.485352"/>
<use xlink:href="#glyph-0-5" x="300" y="220.485352"/>
<use xlink:href="#glyph-0-0" x="320" y="220.485352"/>
<use xlink:href="#glyph-0-7" x="340" y="220.485352"/>
<use xlink:href="#glyph-0-4" x="360" y="220.485352"/>
<use xlink:href="#glyph-0-4" x="380" y="220.485352"/>
<use xlink:href="#glyph-0-4" x="400" y="220.485352"/>
<use xlink:href="#glyph-0-4" x="420" y="220.485352"/>
<use xlink:href="#glyph-0-4" x="440" y="220.485352"/>
<use xlink:href="#glyph-0-5" x="460" y="220.485352"/>
<use xlink:href="#glyph-0-0" x="480" y="220.485352"/>
<use xlink:href="#glyph-0-7" x="500" y="220.485352"/>
<use xlink:href="#glyph-0-4" x="520" y="220.485352"/>
<use xlink:href="#glyph-0-4" x="540" y="220.485352"/>
<use xlink:href="#glyph-0-4" x="560" y="220.485352"/>
<use xlink:href="#glyph-0-4" x="580" y="220.485352"/>
<use xlink:href="#glyph-0-4" x="600" y="220.485352"/>
<use xlink:href="#glyph-0-4" x="620" y="220.485352"/>
<use xlink:href="#glyph-0-5" x="640" y="220.485352"/>
<use xlink:href="#glyph-0-7" x="660" y="220.485352"/>
<use xlink:href="#glyph-0-4" x="680" y="220.485352"/>
<use xlink:href="#glyph-0-5" x="700" y="220.485352"/>
<use xlink:href="#glyph-0-0" x="720" y="220.485352"/>
<use xlink:href="#glyph-0-0" x="740" y="220.485352"/>
<use xlink:href="#glyph-0-0" x="760" y="220.485352"/>
<use xlink:href="#glyph-0-0" x="780" y="220.485352"/>
<use xlink:href="#glyph-0-0" x="800" y="220.485352"/>
<use xlink:href="#glyph-0-7" x="820" y="220.485352"/>
<use xlink:href="#glyph-0-4" x="840" y="220.485352"/>
<use xlink:href="#glyph-0-5" x="860" y="220.485352"/>
<use xlink:href="#glyph-0-7" x="880" y="220.485352"/>
<use xlink:href="#glyph-0-4" x="900" y="220.485352"/>
<use xlink:href="#glyph-0-5" x="920" y="220.485352"/>
<use xlink:href="#glyph-0-0" x="940" y="220.485352"/>
<use xlink:href="#glyph-0-0" x="960" y="220.485352"/>
<use xlink:href="#glyph-0-7" x="980" y="220.485352"/>
<use xlink:href="#glyph-0-4" x="1000" y="220.485352"/>
<use xlink:href="#glyph-0-5" x="1020" y="220.485352"/>
<use xlink:href="#glyph-0-0" x="1040" y="220.485352"/>
<use xlink:href="#glyph-0-0" x="1060" y="220.485352"/>
<use xlink:href="#glyph-0-0" x="1080" y="220.485352"/>
<use xlink:href="#glyph-0-7" x="1100" y="220.485352"/>
<use xlink:href="#glyph-0-4" x="1120" y="220.485352"/>
<use xlink:href="#glyph-0-5" x="1140" y="220.485352"/>
<use xlink:href="#glyph-0-0" x="1160" y="220.485352"/>
<use xlink:href="#glyph-0-0" x="1180" y="220.485352"/>
<use xlink:href="#glyph-0-0" x="1200" y="220.485352"/>
<use xlink:href="#glyph-0-7" x="1220" y="220.485352"/>
<use xlink:href="#glyph-0-4" x="1240" y="220.485352"/>
<use xlink:href="#glyph-0-4" x="1260" y="220.485352"/>
<use xlink:href="#glyph-0-4" x="1280" y="220.485352"/>
<use xlink:href="#glyph-0-4" x="1300" y="220.485352"/>
<use xlink:href="#glyph-0-4" x="1320" y="220.485352"/>
<use xlink:href="#glyph-0-4" x="1340" y="220.485352"/>
<use xlink:href="#glyph-0-5" x="1360" y="220.485352"/>
</g>
</svg>
