<svg xmlns="http://www.w3.org/2000/svg" width="1067" height="186" viewBox="0 0 1067 186" role="img" aria-labelledby="title desc">
  <title id="title">Codemate</title>
  <desc id="desc">Codemate banner drawn from fixed geometric shapes.</desc>
  <style>
    .ink { fill: #111827; stroke: #111827; }
    .line { fill: none; stroke-linecap: square; stroke-width: 1.45; }
    @media (prefers-color-scheme: dark) {
      .ink { fill: #f3f4f6; stroke: #f3f4f6; }
    }
  </style>
  <path class="ink" d="M31.00 16.00H46.00V33.00H31.00Z M46.00 16.00H61.00V33.00H46.00Z M61.00 16.00H76.00V33.00H61.00Z M76.00 16.00H91.00V33.00H76.00Z M91.00 16.00H106.00V33.00H91.00Z M106.00 16.00H121.00V33.00H106.00Z M151.00 16.00H166.00V33.00H151.00Z M166.00 16.00H181.00V33.00H166.00Z M181.00 16.00H196.00V33.00H181.00Z M196.00 16.00H211.00V33.00H196.00Z M211.00 16.00H226.00V33.00H211.00Z M226.00 16.00H241.00V33.00H226.00Z M271.00 16.00H286.00V33.00H271.00Z M286.00 16.00H301.00V33.00H286.00Z M301.00 16.00H316.00V33.00H301.00Z M316.00 16.00H331.00V33.00H316.00Z M331.00 16.00H346.00V33.00H331.00Z M346.00 16.00H361.00V33.00H346.00Z M391.00 16.00H406.00V33.00H391.00Z M406.00 16.00H421.00V33.00H406.00Z M421.00 16.00H436.00V33.00H421.00Z M436.00 16.00H451.00V33.00H436.00Z M451.00 16.00H466.00V33.00H451.00Z M466.00 16.00H481.00V33.00H466.00Z M481.00 16.00H496.00V33.00H481.00Z M511.00 16.00H526.00V33.00H511.00Z M526.00 16.00H541.00V33.00H526.00Z M541.00 16.00H556.00V33.00H541.00Z M616.00 16.00H631.00V33.00H616.00Z M631.00 16.00H646.00V33.00H631.00Z M646.00 16.00H661.00V33.00H646.00Z M691.00 16.00H706.00V33.00H691.00Z M706.00 16.00H721.00V33.00H706.00Z M721.00 16.00H736.00V33.00H721.00Z M736.00 16.00H751.00V33.00H736.00Z M751.00 16.00H766.00V33.00H751.00Z M796.00 16.00H811.00V33.00H796.00Z M811.00 16.00H826.00V33.00H811.00Z M826.00 16.00H841.00V33.00H826.00Z M841.00 16.00H856.00V33.00H841.00Z M856.00 16.00H871.00V33.00H856.00Z M871.00 16.00H886.00V33.00H871.00Z M886.00 16.00H901.00V33.00H886.00Z M901.00 16.00H916.00V33.00H901.00Z M931.00 16.00H946.00V33.00H931.00Z M946.00 16.00H961.00V33.00H946.00Z M961.00 16.00H976.00V33.00H961.00Z M976.00 16.00H991.00V33.00H976.00Z M991.00 16.00H1006.00V33.00H991.00Z M1006.00 16.00H1021.00V33.00H1006.00Z M1021.00 16.00H1036.00V33.00H1021.00Z M16.00 43.00H31.00V60.00H16.00Z M31.00 43.00H46.00V60.00H31.00Z M136.00 43.00H151.00V60.00H136.00Z M151.00 43.00H166.00V60.00H151.00Z M226.00 43.00H241.00V60.00H226.00Z M241.00 43.00H256.00V60.00H241.00Z M271.00 43.00H286.00V60.00H271.00Z M286.00 43.00H301.00V60.00H286.00Z M346.00 43.00H361.00V60.00H346.00Z M361.00 43.00H376.00V60.00H361.00Z M391.00 43.00H406.00V60.00H391.00Z M406.00 43.00H421.00V60.00H406.00Z M511.00 43.00H526.00V60.00H511.00Z M526.00 43.00H541.00V60.00H526.00Z M541.00 43.00H556.00V60.00H541.00Z M556.00 43.00H571.00V60.00H556.00Z M601.00 43.00H616.00V60.00H601.00Z M616.00 43.00H631.00V60.00H616.00Z M631.00 43.00H646.00V60.00H631.00Z M646.00 43.00H661.00V60.00H646.00Z M676.00 43.00H691.00V60.00H676.00Z M691.00 43.00H706.00V60.00H691.00Z M751.00 43.00H766.00V60.00H751.00Z M766.00 43.00H781.00V60.00H766.00Z M841.00 43.00H856.00V60.00H841.00Z M856.00 43.00H871.00V60.00H856.00Z M931.00 43.00H946.00V60.00H931.00Z M946.00 43.00H961.00V60.00H946.00Z M16.00 70.00H31.00V87.00H16.00Z M31.00 70.00H46.00V87.00H31.00Z M136.00 70.00H151.00V87.00H136.00Z M151.00 70.00H166.00V87.00H151.00Z M226.00 70.00H241.00V87.00H226.00Z M241.00 70.00H256.00V87.00H241.00Z M271.00 70.00H286.00V87.00H271.00Z M286.00 70.00H301.00V87.00H286.00Z M346.00 70.00H361.00V87.00H346.00Z M361.00 70.00H376.00V87.00H361.00Z M391.00 70.00H406.00V87.00H391.00Z M406.00 70.00H421.00V87.00H406.00Z M421.00 70.00H436.00V87.00H421.00Z M436.00 70.00H451.00V87.00H436.00Z M451.00 70.00H466.00V87.00H451.00Z M511.00 70.00H526.00V87.00H511.00Z M526.00 70.00H541.00V87.00H526.00Z M556.00 70.00H571.00V87.00H556.00Z M571.00 70.00H586.00V87.00H571.00Z M586.00 70.00H601.00V87.00H586.00Z M601.00 70.00H616.00V87.00H601.00Z M631.00 70.00H646.00V87.00H631.00Z M646.00 70.00H661.00V87.00H646.00Z M676.00 70.00H691.00V87.00H676.00Z M691.00 70.00H706.00V87.00H691.00Z M706.00 70.00H721.00V87.00H706.00Z M721.00 70.00H736.00V87.00H721.00Z M736.00 70.00H751.00V87.00H736.00Z M751.00 70.00H766.00V87.00H751.00Z M766.00 70.00H781.00V87.00H766.00Z M841.00 70.00H856.00V87.00H841.00Z M856.00 70.00H871.00V87.00H856.00Z M931.00 70.00H946.00V87.00H931.00Z M946.00 70.00H961.00V87.00H946.00Z M961.00 70.00H976.00V87.00H961.00Z M976.00 70.00H991.00V87.00H976.00Z M991.00 70.00H1006.00V87.00H991.00Z M16.00 97.00H31.00V114.00H16.00Z M31.00 97.00H46.00V114.00H31.00Z M136.00 97.00H151.00V114.00H136.00Z M151.00 97.00H166.00V114.00H151.00Z M226.00 97.00H241.00V114.00H226.00Z M241.00 97.00H256.00V114.00H241.00Z M271.00 97.00H286.00V114.00H271.00Z M286.00 97.00H301.00V114.00H286.00Z M346.00 97.00H361.00V114.00H346.00Z M361.00 97.00H376.00V114.00H361.00Z M391.00 97.00H406.00V114.00H391.00Z M406.00 97.00H421.00V114.00H406.00Z M511.00 97.00H526.00V114.00H511.00Z M526.00 97.00H541.00V114.00H526.00Z M571.00 97.00H586.00V114.00H571.00Z M586.00 97.00H601.00V114.00H586.00Z M631.00 97.00H646.00V114.00H631.00Z M646.00 97.00H661.00V114.00H646.00Z M676.00 97.00H691.00V114.00H676.00Z M691.00 97.00H706.00V114.00H691.00Z M751.00 97.00H766.00V114.00H751.00Z M766.00 97.00H781.00V114.00H766.00Z M841.00 97.00H856.00V114.00H841.00Z M856.00 97.00H871.00V114.00H856.00Z M931.00 97.00H946.00V114.00H931.00Z M946.00 97.00H961.00V114.00H946.00Z M31.00 124.00H46.00V141.00H31.00Z M46.00 124.00H61.00V141.00H46.00Z M61.00 124.00H76.00V141.00H61.00Z M76.00 124.00H91.00V141.00H76.00Z M91.00 124.00H106.00V141.00H91.00Z M106.00 124.00H121.00V141.00H106.00Z M151.00 124.00H166.00V141.00H151.00Z M166.00 124.00H181.00V141.00H166.00Z M181.00 124.00H196.00V141.00H181.00Z M196.00 124.00H211.00V141.00H196.00Z M211.00 124.00H226.00V141.00H211.00Z M226.00 124.00H241.00V141.00H226.00Z M271.00 124.00H286.00V141.00H271.00Z M286.00 124.00H301.00V141.00H286.00Z M301.00 124.00H316.00V141.00H301.00Z M316.00 124.00H331.00V141.00H316.00Z M331.00 124.00H346.00V141.00H331.00Z M346.00 124.00H361.00V141.00H346.00Z M391.00 124.00H406.00V141.00H391.00Z M406.00 124.00H421.00V141.00H406.00Z M421.00 124.00H436.00V141.00H421.00Z M436.00 124.00H451.00V141.00H436.00Z M451.00 124.00H466.00V141.00H451.00Z M466.00 124.00H481.00V141.00H466.00Z M481.00 124.00H496.00V141.00H481.00Z M511.00 124.00H526.00V141.00H511.00Z M526.00 124.00H541.00V141.00H526.00Z M631.00 124.00H646.00V141.00H631.00Z M646.00 124.00H661.00V141.00H646.00Z M676.00 124.00H691.00V141.00H676.00Z M691.00 124.00H706.00V141.00H691.00Z M751.00 124.00H766.00V141.00H751.00Z M766.00 124.00H781.00V141.00H766.00Z M841.00 124.00H856.00V141.00H841.00Z M856.00 124.00H871.00V141.00H856.00Z M931.00 124.00H946.00V141.00H931.00Z M946.00 124.00H961.00V141.00H946.00Z M961.00 124.00H976.00V141.00H961.00Z M976.00 124.00H991.00V141.00H976.00Z M991.00 124.00H1006.00V141.00H991.00Z M1006.00 124.00H1021.00V141.00H1006.00Z M1021.00 124.00H1036.00V141.00H1021.00Z"/>
  <path class="ink line" d="M121.00 23.30L128.50 23.30 M121.00 27.70L128.50 27.70 M126.30 25.50L126.30 39.00 M130.70 25.50L130.70 39.00 M241.00 23.30L248.50 23.30 M241.00 27.70L248.50 27.70 M246.30 25.50L246.30 39.00 M250.70 25.50L250.70 39.00 M361.00 23.30L368.50 23.30 M361.00 27.70L368.50 27.70 M366.30 25.50L366.30 39.00 M370.70 25.50L370.70 39.00 M496.00 23.30L503.50 23.30 M496.00 27.70L503.50 27.70 M501.30 25.50L501.30 39.00 M505.70 25.50L505.70 39.00 M556.00 23.30L563.50 23.30 M556.00 27.70L563.50 27.70 M561.30 25.50L561.30 39.00 M565.70 25.50L565.70 39.00 M661.00 23.30L668.50 23.30 M661.00 27.70L668.50 27.70 M666.30 25.50L666.30 39.00 M670.70 25.50L670.70 39.00 M766.00 23.30L773.50 23.30 M766.00 27.70L773.50 27.70 M771.30 25.50L771.30 39.00 M775.70 25.50L775.70 39.00 M916.00 23.30L923.50 23.30 M916.00 27.70L923.50 27.70 M921.30 25.50L921.30 39.00 M925.70 25.50L925.70 39.00 M1036.00 23.30L1043.50 23.30 M1036.00 27.70L1043.50 27.70 M1041.30 25.50L1041.30 39.00 M1045.70 25.50L1045.70 39.00 M53.50 50.30L61.00 50.30 M53.50 54.70L61.00 54.70 M51.30 52.50L51.30 66.00 M55.70 52.50L55.70 66.00 M61.00 50.30L76.00 50.30 M61.00 54.70L76.00 54.70 M76.00 50.30L91.00 50.30 M76.00 54.70L91.00 54.70 M91.00 50.30L106.00 50.30 M91.00 54.70L106.00 54.70 M106.00 50.30L121.00 50.30 M106.00 54.70L121.00 54.70 M121.00 50.30L128.50 50.30 M121.00 54.70L128.50 54.70 M126.30 39.00L126.30 52.50 M130.70 39.00L130.70 52.50 M173.50 50.30L181.00 50.30 M173.50 54.70L181.00 54.70 M171.30 52.50L171.30 66.00 M175.70 52.50L175.70 66.00 M181.00 50.30L196.00 50.30 M181.00 54.70L196.00 54.70 M196.00 50.30L211.00 50.30 M196.00 54.70L211.00 54.70 M211.00 50.30L226.00 50.30 M211.00 54.70L226.00 54.70 M256.00 50.30L263.50 50.30 M256.00 54.70L263.50 54.70 M261.30 52.50L261.30 66.00 M265.70 52.50L265.70 66.00 M308.50 50.30L316.00 50.30 M308.50 54.70L316.00 54.70 M306.30 52.50L306.30 66.00 M310.70 52.50L310.70 66.00 M316.00 50.30L331.00 50.30 M316.00 54.70L331.00 54.70 M331.00 50.30L346.00 50.30 M331.00 54.70L346.00 54.70 M376.00 50.30L383.50 50.30 M376.00 54.70L383.50 54.70 M381.30 52.50L381.30 66.00 M385.70 52.50L385.70 66.00 M428.50 50.30L436.00 50.30 M428.50 54.70L436.00 54.70 M426.30 52.50L426.30 66.00 M430.70 52.50L430.70 66.00 M436.00 50.30L451.00 50.30 M436.00 54.70L451.00 54.70 M451.00 50.30L466.00 50.30 M451.00 54.70L466.00 54.70 M466.00 50.30L481.00 50.30 M466.00 54.70L481.00 54.70 M481.00 50.30L496.00 50.30 M481.00 54.70L496.00 54.70 M496.00 50.30L503.50 50.30 M496.00 54.70L503.50 54.70 M501.30 39.00L501.30 52.50 M505.70 39.00L505.70 52.50 M571.00 50.30L578.50 50.30 M571.00 54.70L578.50 54.70 M576.30 52.50L576.30 66.00 M580.70 52.50L580.70 66.00 M666.30 39.00L666.30 66.00 M670.70 39.00L670.70 66.00 M713.50 50.30L721.00 50.30 M713.50 54.70L721.00 54.70 M711.30 52.50L711.30 66.00 M715.70 52.50L715.70 66.00 M721.00 50.30L736.00 50.30 M721.00 54.70L736.00 54.70 M736.00 50.30L751.00 50.30 M736.00 54.70L751.00 54.70 M781.00 50.30L788.50 50.30 M781.00 54.70L788.50 54.70 M786.30 52.50L786.30 66.00 M790.70 52.50L790.70 66.00 M803.50 50.30L811.00 50.30 M803.50 54.70L811.00 54.70 M801.30 39.00L801.30 52.50 M805.70 39.00L805.70 52.50 M811.00 50.30L826.00 50.30 M811.00 54.70L826.00 54.70 M826.00 50.30L841.00 50.30 M826.00 54.70L841.00 54.70 M878.50 50.30L886.00 50.30 M878.50 54.70L886.00 54.70 M876.30 52.50L876.30 66.00 M880.70 52.50L880.70 66.00 M886.00 50.30L901.00 50.30 M886.00 54.70L901.00 54.70 M901.00 50.30L916.00 50.30 M901.00 54.70L916.00 54.70 M916.00 50.30L923.50 50.30 M916.00 54.70L923.50 54.70 M921.30 39.00L921.30 52.50 M925.70 39.00L925.70 52.50 M968.50 50.30L976.00 50.30 M968.50 54.70L976.00 54.70 M966.30 52.50L966.30 66.00 M970.70 52.50L970.70 66.00 M976.00 50.30L991.00 50.30 M976.00 54.70L991.00 54.70 M991.00 50.30L1006.00 50.30 M991.00 54.70L1006.00 54.70 M1006.00 50.30L1021.00 50.30 M1006.00 54.70L1021.00 54.70 M1021.00 50.30L1036.00 50.30 M1021.00 54.70L1036.00 54.70 M1036.00 50.30L1043.50 50.30 M1036.00 54.70L1043.50 54.70 M1041.30 39.00L1041.30 52.50 M1045.70 39.00L1045.70 52.50 M51.30 66.00L51.30 93.00 M55.70 66.00L55.70 93.00 M171.30 66.00L171.30 93.00 M175.70 66.00L175.70 93.00 M261.30 66.00L261.30 93.00 M265.70 66.00L265.70 93.00 M306.30 66.00L306.30 93.00 M310.70 66.00L310.70 93.00 M381.30 66.00L381.30 93.00 M385.70 66.00L385.70 93.00 M466.00 77.30L473.50 77.30 M466.00 81.70L473.50 81.70 M471.30 79.50L471.30 93.00 M475.70 79.50L475.70 93.00 M548.50 77.30L556.00 77.30 M548.50 81.70L556.00 81.70 M546.30 79.50L546.30 93.00 M550.70 79.50L550.70 93.00 M623.50 77.30L631.00 77.30 M623.50 81.70L631.00 81.70 M621.30 79.50L621.30 93.00 M625.70 79.50L625.70 93.00 M666.30 66.00L666.30 93.00 M670.70 66.00L670.70 93.00 M786.30 66.00L786.30 93.00 M790.70 66.00L790.70 93.00 M876.30 66.00L876.30 93.00 M880.70 66.00L880.70 93.00 M1006.00 77.30L1013.50 77.30 M1006.00 81.70L1013.50 81.70 M1011.30 79.50L1011.30 93.00 M1015.70 79.50L1015.70 93.00 M51.30 93.00L51.30 120.00 M55.70 93.00L55.70 120.00 M171.30 93.00L171.30 120.00 M175.70 93.00L175.70 120.00 M261.30 93.00L261.30 120.00 M265.70 93.00L265.70 120.00 M306.30 93.00L306.30 120.00 M310.70 93.00L310.70 120.00 M381.30 93.00L381.30 120.00 M385.70 93.00L385.70 120.00 M428.50 104.30L436.00 104.30 M428.50 108.70L436.00 108.70 M426.30 106.50L426.30 120.00 M430.70 106.50L430.70 120.00 M436.00 104.30L451.00 104.30 M436.00 108.70L451.00 108.70 M451.00 104.30L466.00 104.30 M451.00 108.70L466.00 108.70 M466.00 104.30L473.50 104.30 M466.00 108.70L473.50 108.70 M471.30 93.00L471.30 106.50 M475.70 93.00L475.70 106.50 M546.30 93.00L546.30 120.00 M550.70 93.00L550.70 120.00 M563.50 104.30L571.00 104.30 M563.50 108.70L571.00 108.70 M561.30 93.00L561.30 106.50 M565.70 93.00L565.70 106.50 M608.50 104.30L616.00 104.30 M608.50 108.70L616.00 108.70 M606.30 106.50L606.30 120.00 M610.70 106.50L610.70 120.00 M616.00 104.30L623.50 104.30 M616.00 108.70L623.50 108.70 M621.30 93.00L621.30 106.50 M625.70 93.00L625.70 106.50 M666.30 93.00L666.30 120.00 M670.70 93.00L670.70 120.00 M713.50 104.30L721.00 104.30 M713.50 108.70L721.00 108.70 M711.30 106.50L711.30 120.00 M715.70 106.50L715.70 120.00 M721.00 104.30L736.00 104.30 M721.00 108.70L736.00 108.70 M736.00 104.30L751.00 104.30 M736.00 108.70L751.00 108.70 M786.30 93.00L786.30 120.00 M790.70 93.00L790.70 120.00 M876.30 93.00L876.30 120.00 M880.70 93.00L880.70 120.00 M968.50 104.30L976.00 104.30 M968.50 108.70L976.00 108.70 M966.30 106.50L966.30 120.00 M970.70 106.50L970.70 120.00 M976.00 104.30L991.00 104.30 M976.00 108.70L991.00 108.70 M991.00 104.30L1006.00 104.30 M991.00 108.70L1006.00 108.70 M1006.00 104.30L1013.50 104.30 M1006.00 108.70L1013.50 108.70 M1011.30 93.00L1011.30 106.50 M1015.70 93.00L1015.70 106.50 M23.50 131.30L31.00 131.30 M23.50 135.70L31.00 135.70 M21.30 120.00L21.30 133.50 M25.70 120.00L25.70 133.50 M121.00 131.30L128.50 131.30 M121.00 135.70L128.50 135.70 M126.30 133.50L126.30 147.00 M130.70 133.50L130.70 147.00 M143.50 131.30L151.00 131.30 M143.50 135.70L151.00 135.70 M141.30 120.00L141.30 133.50 M145.70 120.00L145.70 133.50 M248.50 131.30L256.00 131.30 M248.50 135.70L256.00 135.70 M246.30 133.50L246.30 147.00 M250.70 133.50L250.70 147.00 M256.00 131.30L263.50 131.30 M256.00 135.70L263.50 135.70 M261.30 120.00L261.30 133.50 M265.70 120.00L265.70 133.50 M368.50 131.30L376.00 131.30 M368.50 135.70L376.00 135.70 M366.30 133.50L366.30 147.00 M370.70 133.50L370.70 147.00 M376.00 131.30L383.50 131.30 M376.00 135.70L383.50 135.70 M381.30 120.00L381.30 133.50 M385.70 120.00L385.70 133.50 M496.00 131.30L503.50 131.30 M496.00 135.70L503.50 135.70 M501.30 133.50L501.30 147.00 M505.70 133.50L505.70 147.00 M546.30 120.00L546.30 147.00 M550.70 120.00L550.70 147.00 M578.50 131.30L586.00 131.30 M578.50 135.70L586.00 135.70 M576.30 120.00L576.30 133.50 M580.70 120.00L580.70 133.50 M586.00 131.30L601.00 131.30 M586.00 135.70L601.00 135.70 M601.00 131.30L608.50 131.30 M601.00 135.70L608.50 135.70 M606.30 120.00L606.30 133.50 M610.70 120.00L610.70 133.50 M666.30 120.00L666.30 147.00 M670.70 120.00L670.70 147.00 M711.30 120.00L711.30 147.00 M715.70 120.00L715.70 147.00 M786.30 120.00L786.30 147.00 M790.70 120.00L790.70 147.00 M876.30 120.00L876.30 147.00 M880.70 120.00L880.70 147.00 M1036.00 131.30L1043.50 131.30 M1036.00 135.70L1043.50 135.70 M1041.30 133.50L1041.30 147.00 M1045.70 133.50L1045.70 147.00 M38.50 158.30L46.00 158.30 M38.50 162.70L46.00 162.70 M36.30 147.00L36.30 160.50 M40.70 147.00L40.70 160.50 M46.00 158.30L61.00 158.30 M46.00 162.70L61.00 162.70 M61.00 158.30L76.00 158.30 M61.00 162.70L76.00 162.70 M76.00 158.30L91.00 158.30 M76.00 162.70L91.00 162.70 M91.00 158.30L106.00 158.30 M91.00 162.70L106.00 162.70 M106.00 158.30L121.00 158.30 M106.00 162.70L121.00 162.70 M121.00 158.30L128.50 158.30 M121.00 162.70L128.50 162.70 M126.30 147.00L126.30 160.50 M130.70 147.00L130.70 160.50 M158.50 158.30L166.00 158.30 M158.50 162.70L166.00 162.70 M156.30 147.00L156.30 160.50 M160.70 147.00L160.70 160.50 M166.00 158.30L181.00 158.30 M166.00 162.70L181.00 162.70 M181.00 158.30L196.00 158.30 M181.00 162.70L196.00 162.70 M196.00 158.30L211.00 158.30 M196.00 162.70L211.00 162.70 M211.00 158.30L226.00 158.30 M211.00 162.70L226.00 162.70 M226.00 158.30L241.00 158.30 M226.00 162.70L241.00 162.70 M241.00 158.30L248.50 158.30 M241.00 162.70L248.50 162.70 M246.30 147.00L246.30 160.50 M250.70 147.00L250.70 160.50 M278.50 158.30L286.00 158.30 M278.50 162.70L286.00 162.70 M276.30 147.00L276.30 160.50 M280.70 147.00L280.70 160.50 M286.00 158.30L301.00 158.30 M286.00 162.70L301.00 162.70 M301.00 158.30L316.00 158.30 M301.00 162.70L316.00 162.70 M316.00 158.30L331.00 158.30 M316.00 162.70L331.00 162.70 M331.00 158.30L346.00 158.30 M331.00 162.70L346.00 162.70 M346.00 158.30L361.00 158.30 M346.00 162.70L361.00 162.70 M361.00 158.30L368.50 158.30 M361.00 162.70L368.50 162.70 M366.30 147.00L366.30 160.50 M370.70 147.00L370.70 160.50 M398.50 158.30L406.00 158.30 M398.50 162.70L406.00 162.70 M396.30 147.00L396.30 160.50 M400.70 147.00L400.70 160.50 M406.00 158.30L421.00 158.30 M406.00 162.70L421.00 162.70 M421.00 158.30L436.00 158.30 M421.00 162.70L436.00 162.70 M436.00 158.30L451.00 158.30 M436.00 162.70L451.00 162.70 M451.00 158.30L466.00 158.30 M451.00 162.70L466.00 162.70 M466.00 158.30L481.00 158.30 M466.00 162.70L481.00 162.70 M481.00 158.30L496.00 158.30 M481.00 162.70L496.00 162.70 M496.00 158.30L503.50 158.30 M496.00 162.70L503.50 162.70 M501.30 147.00L501.30 160.50 M505.70 147.00L505.70 160.50 M518.50 158.30L526.00 158.30 M518.50 162.70L526.00 162.70 M516.30 147.00L516.30 160.50 M520.70 147.00L520.70 160.50 M526.00 158.30L541.00 158.30 M526.00 162.70L541.00 162.70 M541.00 158.30L548.50 158.30 M541.00 162.70L548.50 162.70 M546.30 147.00L546.30 160.50 M550.70 147.00L550.70 160.50 M638.50 158.30L646.00 158.30 M638.50 162.70L646.00 162.70 M636.30 147.00L636.30 160.50 M640.70 147.00L640.70 160.50 M646.00 158.30L661.00 158.30 M646.00 162.70L661.00 162.70 M661.00 158.30L668.50 158.30 M661.00 162.70L668.50 162.70 M666.30 147.00L666.30 160.50 M670.70 147.00L670.70 160.50 M683.50 158.30L691.00 158.30 M683.50 162.70L691.00 162.70 M681.30 147.00L681.30 160.50 M685.70 147.00L685.70 160.50 M691.00 158.30L706.00 158.30 M691.00 162.70L706.00 162.70 M706.00 158.30L713.50 158.30 M706.00 162.70L713.50 162.70 M711.30 147.00L711.30 160.50 M715.70 147.00L715.70 160.50 M758.50 158.30L766.00 158.30 M758.50 162.70L766.00 162.70 M756.30 147.00L756.30 160.50 M760.70 147.00L760.70 160.50 M766.00 158.30L781.00 158.30 M766.00 162.70L781.00 162.70 M781.00 158.30L788.50 158.30 M781.00 162.70L788.50 162.70 M786.30 147.00L786.30 160.50 M790.70 147.00L790.70 160.50 M848.50 158.30L856.00 158.30 M848.50 162.70L856.00 162.70 M846.30 147.00L846.30 160.50 M850.70 147.00L850.70 160.50 M856.00 158.30L871.00 158.30 M856.00 162.70L871.00 162.70 M871.00 158.30L878.50 158.30 M871.00 162.70L878.50 162.70 M876.30 147.00L876.30 160.50 M880.70 147.00L880.70 160.50 M938.50 158.30L946.00 158.30 M938.50 162.70L946.00 162.70 M936.30 147.00L936.30 160.50 M940.70 147.00L940.70 160.50 M946.00 158.30L961.00 158.30 M946.00 162.70L961.00 162.70 M961.00 158.30L976.00 158.30 M961.00 162.70L976.00 162.70 M976.00 158.30L991.00 158.30 M976.00 162.70L991.00 162.70 M991.00 158.30L1006.00 158.30 M991.00 162.70L1006.00 162.70 M1006.00 158.30L1021.00 158.30 M1006.00 162.70L1021.00 162.70 M1021.00 158.30L1036.00 158.30 M1021.00 162.70L1036.00 162.70 M1036.00 158.30L1043.50 158.30 M1036.00 162.70L1043.50 162.70 M1041.30 147.00L1041.30 160.50 M1045.70 147.00L1045.70 160.50"/>
</svg>
